<svg width="1243" height="232" viewBox="0 0 1243 232" fill="none" xmlns="http://www.w3.org/2000/svg">
<path d="M373.42 186.28C363.16 186.28 353.597 184.633 344.73 181.34C335.99 177.92 328.39 173.107 321.93 166.9C315.47 160.693 310.403 153.41 306.73 145.05C303.183 136.69 301.41 127.507 301.41 117.5C301.41 107.493 303.183 98.31 306.73 89.95C310.403 81.59 315.47 74.3067 321.93 68.1C328.517 61.8933 336.18 57.1433 344.92 53.85C353.66 50.43 363.223 48.72 373.61 48.72C385.137 48.72 395.523 50.7467 404.77 54.8C414.143 58.7267 421.997 64.5533 428.33 72.28L408.57 90.52C404.01 85.3267 398.943 81.4633 393.37 78.93C387.797 76.27 381.717 74.94 375.13 74.94C368.923 74.94 363.223 75.9533 358.03 77.98C352.837 80.0067 348.34 82.92 344.54 86.72C340.74 90.52 337.763 95.0167 335.61 100.21C333.583 105.403 332.57 111.167 332.57 117.5C332.57 123.833 333.583 129.597 335.61 134.79C337.763 139.983 340.74 144.48 344.54 148.28C348.34 152.08 352.837 154.993 358.03 157.02C363.223 159.047 368.923 160.06 375.13 160.06C381.717 160.06 387.797 158.793 393.37 156.26C398.943 153.6 404.01 149.61 408.57 144.29L428.33 162.53C421.997 170.257 414.143 176.147 404.77 180.2C395.523 184.253 385.073 186.28 373.42 186.28ZM492.44 185.52C481.547 185.52 471.857 183.24 463.37 178.68C455.01 174.12 448.36 167.913 443.42 160.06C438.607 152.08 436.2 143.023 436.2 132.89C436.2 122.63 438.607 113.573 443.42 105.72C448.36 97.74 455.01 91.5333 463.37 87.1C471.857 82.54 481.547 80.26 492.44 80.26C503.207 80.26 512.834 82.54 521.32 87.1C529.807 91.5333 536.457 97.6767 541.27 105.53C546.084 113.383 548.49 122.503 548.49 132.89C548.49 143.023 546.084 152.08 541.27 160.06C536.457 167.913 529.807 174.12 521.32 178.68C512.834 183.24 503.207 185.52 492.44 185.52ZM492.44 161.2C497.38 161.2 501.814 160.06 505.74 157.78C509.667 155.5 512.77 152.27 515.05 148.09C517.33 143.783 518.47 138.717 518.47 132.89C518.47 126.937 517.33 121.87 515.05 117.69C512.77 113.51 509.667 110.28 505.74 108C501.814 105.72 497.38 104.58 492.44 104.58C487.5 104.58 483.067 105.72 479.14 108C475.214 110.28 472.047 113.51 469.64 117.69C467.36 121.87 466.22 126.937 466.22 132.89C466.22 138.717 467.36 143.783 469.64 148.09C472.047 152.27 475.214 155.5 479.14 157.78C483.067 160.06 487.5 161.2 492.44 161.2ZM634.342 186.28C624.082 186.28 614.519 184.633 605.652 181.34C596.912 177.92 589.312 173.107 582.852 166.9C576.392 160.693 571.326 153.41 567.652 145.05C564.106 136.69 562.332 127.507 562.332 117.5C562.332 107.493 564.106 98.31 567.652 89.95C571.326 81.59 576.392 74.3067 582.852 68.1C589.439 61.8933 597.102 57.1433 605.842 53.85C614.582 50.43 624.146 48.72 634.532 48.72C646.059 48.72 656.446 50.7467 665.692 54.8C675.066 58.7267 682.919 64.5533 689.252 72.28L669.492 90.52C664.932 85.3267 659.866 81.4633 654.292 78.93C648.719 76.27 642.639 74.94 636.052 74.94C629.846 74.94 624.146 75.9533 618.952 77.98C613.759 80.0067 609.262 82.92 605.462 86.72C601.662 90.52 598.686 95.0167 596.532 100.21C594.506 105.403 593.492 111.167 593.492 117.5C593.492 123.833 594.506 129.597 596.532 134.79C598.686 139.983 601.662 144.48 605.462 148.28C609.262 152.08 613.759 154.993 618.952 157.02C624.146 159.047 629.846 160.06 636.052 160.06C642.639 160.06 648.719 158.793 654.292 156.26C659.866 153.6 664.932 149.61 669.492 144.29L689.252 162.53C682.919 170.257 675.066 176.147 665.692 180.2C656.446 184.253 645.996 186.28 634.342 186.28ZM708.248 184V81.78H736.558V110.66L732.568 102.3C735.608 95.08 740.485 89.6333 747.198 85.96C753.911 82.16 762.081 80.26 771.708 80.26V107.62C770.441 107.493 769.301 107.43 768.288 107.43C767.275 107.303 766.198 107.24 765.058 107.24C756.951 107.24 750.365 109.583 745.298 114.27C740.358 118.83 737.888 125.987 737.888 135.74V184H708.248ZM845.652 184V164.05L843.752 159.68V123.96C843.752 117.627 841.789 112.687 837.862 109.14C834.062 105.593 828.172 103.82 820.192 103.82C814.746 103.82 809.362 104.707 804.042 106.48C798.849 108.127 794.416 110.407 790.742 113.32L780.102 92.61C785.676 88.6833 792.389 85.6433 800.242 83.49C808.096 81.3367 816.076 80.26 824.182 80.26C839.762 80.26 851.859 83.9333 860.472 91.28C869.086 98.6267 873.392 110.09 873.392 125.67V184H845.652ZM814.492 185.52C806.512 185.52 799.672 184.19 793.972 181.53C788.272 178.743 783.902 175.007 780.862 170.32C777.822 165.633 776.302 160.377 776.302 154.55C776.302 148.47 777.759 143.15 780.672 138.59C783.712 134.03 788.462 130.483 794.922 127.95C801.382 125.29 809.806 123.96 820.192 123.96H847.362V141.25H823.422C816.456 141.25 811.642 142.39 808.982 144.67C806.449 146.95 805.182 149.8 805.182 153.22C805.182 157.02 806.639 160.06 809.552 162.34C812.592 164.493 816.709 165.57 821.902 165.57C826.842 165.57 831.276 164.43 835.202 162.15C839.129 159.743 841.979 156.26 843.752 151.7L848.312 165.38C846.159 171.967 842.232 176.97 836.532 180.39C830.832 183.81 823.486 185.52 814.492 185.52ZM904.128 184V79.5C904.128 67.9733 907.548 58.79 914.388 51.95C921.228 44.9833 930.981 41.5 943.648 41.5C947.955 41.5 952.071 41.9433 955.998 42.83C960.051 43.7167 963.471 45.11 966.258 47.01L958.468 68.48C956.821 67.34 954.985 66.4533 952.958 65.82C950.931 65.1867 948.778 64.87 946.498 64.87C942.191 64.87 938.835 66.1367 936.428 68.67C934.148 71.0767 933.008 74.75 933.008 79.69V89.19L933.768 101.92V184H904.128ZM888.358 106.86V84.06H959.228V106.86H888.358ZM1016.09 185.52C1004.06 185.52 994.688 182.48 987.974 176.4C981.261 170.193 977.904 161.01 977.904 148.85V59.17H1007.54V148.47C1007.54 152.777 1008.68 156.133 1010.96 158.54C1013.24 160.82 1016.35 161.96 1020.27 161.96C1024.96 161.96 1028.95 160.693 1032.24 158.16L1040.22 179.06C1037.18 181.213 1033.51 182.86 1029.2 184C1025.02 185.013 1020.65 185.52 1016.09 185.52ZM962.134 106.86V84.06H1033V106.86H962.134ZM1104.74 185.52C1093.09 185.52 1082.83 183.24 1073.96 178.68C1065.22 174.12 1058.44 167.913 1053.63 160.06C1048.82 152.08 1046.41 143.023 1046.41 132.89C1046.41 122.63 1048.75 113.573 1053.44 105.72C1058.25 97.74 1064.78 91.5333 1073.01 87.1C1081.24 82.54 1090.55 80.26 1100.94 80.26C1110.95 80.26 1119.94 82.4133 1127.92 86.72C1136.03 90.9 1142.42 96.98 1147.11 104.96C1151.8 112.813 1154.14 122.25 1154.14 133.27C1154.14 134.41 1154.08 135.74 1153.95 137.26C1153.82 138.653 1153.7 139.983 1153.57 141.25H1070.54V123.96H1137.99L1126.59 129.09C1126.59 123.77 1125.51 119.147 1123.36 115.22C1121.21 111.293 1118.23 108.253 1114.43 106.1C1110.63 103.82 1106.2 102.68 1101.13 102.68C1096.06 102.68 1091.57 103.82 1087.64 106.1C1083.84 108.253 1080.86 111.357 1078.71 115.41C1076.56 119.337 1075.48 124.023 1075.48 129.47V134.03C1075.48 139.603 1076.68 144.543 1079.09 148.85C1081.62 153.03 1085.11 156.26 1089.54 158.54C1094.1 160.693 1099.42 161.77 1105.5 161.77C1110.95 161.77 1115.7 160.947 1119.75 159.3C1123.93 157.653 1127.73 155.183 1131.15 151.89L1146.92 168.99C1142.23 174.31 1136.34 178.427 1129.25 181.34C1122.16 184.127 1113.99 185.52 1104.74 185.52ZM1174.17 184V81.78H1202.48V110.66L1198.49 102.3C1201.53 95.08 1206.41 89.6333 1213.12 85.96C1219.84 82.16 1228.01 80.26 1237.63 80.26V107.62C1236.37 107.493 1235.23 107.43 1234.21 107.43C1233.2 107.303 1232.12 107.24 1230.98 107.24C1222.88 107.24 1216.29 109.583 1211.22 114.27C1206.28 118.83 1203.81 125.987 1203.81 135.74V184H1174.17Z" fill="#111111"/>
<path d="M110.7 221.796V16.2039C110.7 12.4661 106.21 10.5942 103.585 13.2373L1.2207 116.284C-0.409713 117.926 -0.406481 120.588 1.22791 122.225L103.592 224.77C106.22 227.403 110.7 225.529 110.7 221.796Z" fill="#F6521D"/>
<path d="M144.681 98.3391V17.1327C144.681 13.3948 149.17 11.5229 151.796 14.166L232.464 95.3724C235.09 98.0154 233.23 102.535 229.517 102.535H148.849C146.547 102.535 144.681 100.656 144.681 98.3391Z" fill="#F6521D"/>
<path d="M148.137 136.092H228.805C232.518 136.092 234.378 140.611 231.752 143.254L151.084 224.46C148.459 227.103 143.97 225.231 143.97 221.493V140.287C143.97 137.97 145.836 136.092 148.137 136.092Z" fill="#F6521D"/>
</svg>
